<svg xmlns="http://www.w3.org/2000/svg" width="100%" height="auto" viewBox="0 0 1000 1000" version="1.1">
	<path d="M 691.512 319.750 C 678.422 337.212, 667.665 352.175, 667.606 353 C 667.513 354.321, 678.011 354.533, 755.500 354.775 C 803.900 354.926, 844.513 354.805, 845.750 354.506 L 848 353.962 848 320.981 L 848 288 781.655 288 L 715.311 288 691.512 319.750 M 591 429.500 L 591 569 623.893 569 C 652.965 569, 656.857 568.816, 657.393 567.418 C 657.727 566.548, 658 544.498, 658 518.418 L 658 471 740.573 471 C 813.770 471, 823.110 470.828, 822.823 469.487 C 822.645 468.654, 811.925 453.819, 799 436.520 L 775.500 405.066 717 404.783 L 658.500 404.500 658 379.254 L 657.500 354.008 625.506 322.004 C 607.909 304.402, 592.947 290, 592.256 290 C 591.254 290, 591 318.220, 591 429.500 M 374.232 297.245 C 371.511 300.685, 363.911 310.700, 357.344 319.500 C 336.752 347.094, 325.536 362.055, 315.100 375.849 C 309.545 383.191, 305 389.829, 305 390.599 C 305 391.794, 325.337 392, 442.963 392 L 580.926 392 581.213 369.750 C 581.371 357.512, 581.275 334.900, 581 319.500 L 580.500 291.500 479.840 291.245 L 379.180 290.990 374.232 297.245 M 189.537 301.250 C 189.189 305.238, 189.038 400.525, 189.202 513 L 189.500 717.500 240.250 717.759 L 291 718.018 291 644.119 L 291 570.219 294.750 569.700 C 296.813 569.414, 352.725 569.147, 419 569.107 C 485.275 569.067, 540.513 569.026, 541.750 569.017 C 542.987 569.008, 544 568.501, 544 567.891 C 544 567.281, 532.638 551.726, 518.750 533.326 C 504.863 514.926, 492.825 498.883, 492 497.676 C 488.761 492.937, 473.050 472.373, 471.046 470.250 L 468.922 468 379.961 468 L 291 468 291 430.246 L 291 392.492 241.746 343.246 C 214.657 316.161, 191.970 294, 191.332 294 C 190.615 294, 189.928 296.777, 189.537 301.250" stroke="none" fill="black" fill-rule="evenodd"/>
</svg>